<?xml version="1.0" standalone="no"?>
<!DOCTYPE svg PUBLIC "-//W3C//DTD SVG 20010904//EN"
 "http://www.w3.org/TR/2001/REC-SVG-20010904/DTD/svg10.dtd">
<svg version="1.0" xmlns="http://www.w3.org/2000/svg"
 width="900.000000pt" height="900.000000pt" viewBox="0 0 900.000000 900.000000"
 preserveAspectRatio="xMidYMid meet">
<metadata>
Created by potrace 1.11, written by Peter Selinger 2001-2013
</metadata>
<g transform="translate(0.000000,900.000000) scale(0.100000,-0.100000)"
fill="#000000" stroke="none">
<path d="M6021 8924 c-17 -14 -31 -23 -31 -19 0 3 -6 1 -12 -5 -7 -6 -49 -33
-93 -60 -43 -28 -75 -50 -70 -50 10 0 -12 -14 -72 -45 -18 -10 -33 -20 -33
-24 0 -4 -18 -17 -40 -30 -22 -12 -40 -26 -40 -32 0 -5 -3 -8 -7 -7 -9 3 -53
-26 -84 -54 -10 -10 -23 -18 -29 -18 -5 0 -10 -4 -10 -10 0 -5 -5 -10 -11 -10
-11 0 -77 -47 -143 -102 -19 -16 -38 -28 -43 -28 -6 0 -21 -11 -35 -24 -14
-12 -32 -26 -39 -29 -8 -3 -42 -28 -76 -56 -35 -28 -63 -49 -63 -46 0 3 -8 -3
-18 -12 -34 -32 -62 -53 -62 -46 0 4 -12 -4 -27 -18 -39 -35 -141 -109 -150
-109 -5 0 -14 -9 -21 -21 -7 -12 -16 -18 -19 -15 -3 3 -17 -6 -30 -20 -12 -14
-23 -22 -23 -19 0 3 -6 1 -12 -5 -7 -6 -35 -27 -63 -48 -27 -20 -59 -45 -69
-54 -11 -10 -26 -18 -33 -18 -7 0 -17 -9 -23 -20 -6 -11 -16 -20 -23 -20 -12
0 -36 -18 -102 -72 -18 -16 -37 -28 -41 -28 -8 0 -29 -16 -81 -60 -7 -6 -13
-8 -13 -4 0 4 -13 -5 -29 -20 -30 -29 -82 -45 -156 -50 -22 -2 -43 -4 -47 -6
-5 -1 -17 -4 -28 -5 -11 -1 -21 -4 -22 -5 -2 -1 -12 -4 -23 -6 -11 -2 -49 -10
-85 -19 -74 -18 -117 -26 -142 -26 -10 0 -18 -4 -18 -8 0 -4 -34 -15 -75 -26
-41 -10 -75 -22 -75 -26 0 -4 -11 -6 -24 -3 -14 2 -28 0 -31 -6 -4 -6 -11 -8
-16 -5 -5 4 -9 1 -9 -4 0 -6 -3 -10 -7 -9 -8 1 -32 -6 -73 -25 -14 -6 -31 -9
-37 -8 -7 1 -13 -2 -13 -6 0 -5 -10 -10 -22 -10 -13 -1 -32 -7 -43 -12 -24
-12 -93 -40 -100 -40 -3 -1 -29 -13 -58 -27 l-52 -27 -140 12 c-136 11 -160
13 -255 25 -25 3 -81 8 -125 11 -44 2 -96 6 -115 9 -19 3 -91 10 -160 17 -69
7 -127 15 -130 18 -3 4 -25 7 -50 8 -100 6 -198 13 -260 19 -36 4 -82 7 -102
8 -21 0 -38 4 -38 7 0 7 -92 18 -165 20 -22 1 -44 4 -50 7 -5 3 -30 7 -55 8
-25 0 -47 2 -50 4 -3 2 -41 4 -85 5 -44 1 -98 5 -120 8 -252 37 -505 35 -505
-5 0 -4 -3 -7 -7 -6 -12 4 -63 -44 -63 -58 0 -6 -7 -15 -16 -18 -9 -4 -14 -9
-10 -13 3 -3 -2 -15 -11 -26 -10 -10 -17 -20 -15 -21 2 0 1 -8 -2 -16 -4 -13
-32 -107 -44 -150 -2 -8 -4 -30 -5 -47 -1 -18 -5 -33 -9 -33 -9 0 -9 5 -14
-322 -6 -332 -15 -312 96 -221 36 30 72 59 80 66 8 7 18 12 23 12 4 0 11 5 15
10 10 14 120 85 132 85 5 0 10 4 10 9 0 10 39 27 52 23 5 -1 8 2 8 7 0 5 16
15 34 22 19 7 33 16 30 21 -5 7 10 12 28 9 5 0 8 4 8 9 0 6 6 10 13 9 6 -2 37
9 67 24 50 25 86 37 118 39 6 1 12 4 12 8 0 4 20 13 45 20 25 7 48 17 51 22 3
4 10 6 15 3 5 -4 9 -2 9 3 0 4 12 9 28 9 15 1 36 4 47 7 17 5 93 25 160 42 46
12 94 17 158 18 37 1 67 4 67 8 0 9 366 4 485 -6 92 -8 130 -12 130 -16 0 -1
9 -4 20 -6 24 -4 36 -7 95 -23 49 -14 74 -20 105 -26 11 -1 58 -17 105 -35 47
-18 91 -32 98 -33 6 0 12 -4 12 -9 0 -4 3 -7 8 -6 4 1 24 -6 46 -15 21 -9 42
-17 47 -17 5 0 9 -4 9 -8 0 -4 9 -8 20 -9 11 -1 33 -11 49 -22 16 -12 34 -21
40 -21 6 0 11 -5 11 -11 0 -5 4 -8 8 -5 4 2 32 -11 62 -30 30 -18 60 -34 67
-34 6 0 13 -4 15 -8 3 -9 93 -72 102 -72 2 0 20 -13 38 -30 18 -16 37 -30 43
-30 6 0 16 -9 23 -20 7 -11 19 -20 27 -20 8 0 14 -3 12 -8 -1 -4 1 -7 4 -7 4
0 25 -19 48 -42 22 -24 45 -43 51 -43 5 0 20 -16 33 -35 13 -19 26 -32 30 -29
3 3 14 -7 24 -23 10 -15 29 -40 43 -54 72 -77 190 -229 190 -246 0 -6 7 -14
16 -17 9 -4 14 -9 11 -12 -3 -4 5 -21 18 -39 14 -17 25 -36 25 -42 0 -5 8 -17
18 -27 11 -9 24 -34 31 -56 6 -22 16 -40 22 -40 6 0 7 -4 4 -10 -3 -5 -3 -10
2 -10 9 0 33 -48 33 -67 0 -14 36 -83 52 -98 7 -7 8 -1 4 20 -4 17 -8 59 -10
95 -2 36 -4 65 -6 65 -5 0 -11 148 -11 270 0 126 6 260 11 260 1 0 4 20 5 45
6 76 27 200 36 206 4 2 6 11 2 19 -3 8 0 15 7 15 6 0 9 4 5 9 -3 5 2 30 10 55
8 25 15 48 14 53 -1 4 3 21 9 36 7 16 12 35 12 43 0 8 5 14 10 14 6 0 9 3 8 8
-4 15 44 153 59 167 8 8 11 15 7 15 -3 0 -1 6 5 13 6 8 8 17 4 20 -3 4 -1 7 5
7 7 0 12 8 12 18 0 9 9 32 20 50 11 17 16 32 12 32 -4 0 1 5 11 11 9 5 17 16
17 24 0 8 18 42 40 76 22 34 40 66 40 70 0 8 20 36 48 64 6 8 12 16 12 20 0 7
77 111 105 142 11 12 38 43 60 69 46 54 201 214 209 214 2 0 20 15 39 33 42
39 73 63 110 85 15 9 27 22 27 29 0 7 3 12 8 11 10 -3 112 65 112 74 0 5 6 8
13 8 6 0 34 16 61 35 27 19 55 35 62 35 7 0 20 7 28 16 9 8 16 13 16 10 0 -3
16 6 36 19 20 14 45 25 55 25 9 0 19 3 21 8 4 9 106 62 121 62 7 1 30 9 52 20
22 10 43 17 46 14 4 -2 12 3 19 11 7 8 21 15 31 15 10 0 44 10 76 22 32 13 63
23 68 24 6 0 23 6 38 12 16 7 41 12 56 12 15 0 31 3 35 7 3 4 12 8 19 9 24 4
66 14 130 30 22 5 207 31 262 36 17 2 35 6 40 9 6 3 25 5 43 4 24 0 32 3 32
17 0 9 -4 20 -10 23 -5 3 -10 15 -10 26 0 10 -5 19 -11 19 -5 0 -7 5 -4 10 3
6 1 10 -4 10 -6 0 -11 7 -11 15 0 25 -57 120 -103 170 -15 16 -36 40 -47 53
-12 12 -27 22 -35 22 -8 0 -15 4 -15 9 0 5 -19 19 -43 30 -34 16 -63 21 -129
21 -78 0 -89 -2 -117 -26z"/>
<path d="M6477 7928 c-7 -3 -27 -5 -45 -4 -18 1 -35 -1 -37 -5 -3 -4 -26 -10
-52 -14 -27 -4 -52 -10 -58 -13 -5 -3 -22 -5 -37 -3 -16 1 -28 -2 -28 -9 0 -6
-5 -8 -10 -5 -6 4 -16 2 -23 -3 -7 -6 -15 -10 -20 -11 -24 -1 -117 -36 -117
-44 0 -5 -6 -7 -14 -4 -8 3 -48 -11 -88 -31 -40 -20 -76 -35 -80 -34 -5 1 -8
-2 -8 -6 0 -5 -18 -17 -40 -27 -22 -10 -40 -22 -40 -27 0 -5 -4 -7 -9 -4 -5 3
-29 -10 -54 -29 -24 -19 -47 -31 -51 -28 -3 3 -8 -2 -12 -11 -3 -9 -11 -16
-16 -16 -6 0 -21 -11 -34 -25 -13 -14 -25 -24 -26 -23 -6 6 -172 -151 -173
-163 0 -3 -14 -18 -32 -33 -18 -15 -42 -44 -55 -64 -12 -20 -26 -41 -30 -47
-31 -39 -88 -128 -88 -139 0 -7 -9 -23 -20 -36 -11 -12 -17 -26 -15 -30 3 -4
-2 -13 -10 -20 -8 -7 -19 -29 -25 -50 -6 -21 -18 -56 -27 -77 -17 -38 -22 -56
-27 -83 -5 -28 -28 -125 -33 -140 -8 -21 -14 -59 -16 -95 -1 -16 -5 -35 -9
-40 -10 -16 1 -382 13 -405 1 -3 3 -9 4 -15 1 -5 4 -17 7 -25 3 -8 11 -42 18
-75 7 -33 18 -76 26 -96 7 -20 10 -39 7 -43 -4 -3 -1 -6 4 -6 6 0 17 -22 24
-50 7 -27 16 -50 21 -50 4 0 7 -3 6 -7 -2 -12 13 -44 34 -75 10 -14 18 -33 18
-42 0 -8 8 -20 18 -25 9 -6 13 -11 8 -11 -4 0 3 -15 18 -34 14 -19 26 -41 26
-48 0 -7 9 -19 20 -26 12 -7 18 -17 15 -21 -2 -5 2 -11 10 -15 8 -3 15 -10 15
-15 0 -11 39 -58 106 -128 23 -24 40 -43 37 -43 -2 0 22 -24 53 -52 31 -29 59
-53 62 -53 3 0 21 -15 39 -34 18 -19 33 -30 33 -26 0 4 9 -3 21 -16 11 -13 25
-24 30 -24 5 0 13 -5 17 -10 9 -13 111 -75 123 -75 5 0 9 -4 9 -10 0 -5 6 -10
14 -10 8 0 21 -6 28 -13 7 -7 16 -14 20 -15 11 -3 76 -32 127 -56 25 -12 47
-21 50 -22 3 0 18 -6 32 -12 15 -6 43 -14 63 -17 20 -4 36 -10 36 -14 0 -4 6
-8 13 -9 31 -4 54 -10 81 -21 15 -6 58 -16 95 -22 36 -5 80 -12 96 -15 17 -3
46 -7 65 -9 19 -1 35 -4 35 -5 0 -1 82 -3 183 -4 100 -1 182 1 182 5 0 4 18 7
40 5 22 -2 40 1 40 6 0 4 12 8 28 8 43 -1 151 19 175 32 12 6 23 11 25 10 1
-1 4 -1 7 -1 3 1 8 2 13 3 41 11 92 31 92 36 0 4 11 5 25 2 15 -2 25 0 25 7 0
7 4 10 9 6 5 -3 12 -1 16 5 4 6 11 8 16 5 5 -4 9 -3 9 2 0 4 15 14 33 22 92
39 243 125 287 163 8 7 31 24 50 38 19 13 40 31 47 40 7 8 13 11 13 7 0 -8
155 149 202 206 37 43 109 153 133 202 11 22 23 42 27 45 6 5 32 70 45 115 4
11 10 23 15 26 5 3 10 14 13 25 11 50 27 110 32 124 4 8 5 21 4 28 -1 6 2 12
7 12 5 0 8 10 7 23 -1 12 1 27 6 32 10 13 10 3 13 283 2 127 0 232 -4 232 -4
0 -6 10 -5 22 1 12 -7 51 -17 87 -10 36 -22 87 -27 113 -4 26 -14 54 -21 63
-7 8 -9 15 -5 15 4 0 2 7 -5 15 -7 8 -9 15 -5 15 4 0 2 7 -5 15 -7 8 -9 15 -6
15 4 0 0 7 -8 16 -9 8 -16 26 -16 40 0 13 -5 24 -11 24 -5 0 -8 4 -4 9 3 5 1
12 -5 16 -6 4 -8 11 -5 16 4 5 2 9 -4 9 -5 0 -20 21 -33 48 -12 26 -42 75 -65
110 -23 34 -40 62 -38 62 4 0 -6 13 -75 90 -22 24 -40 51 -40 59 0 8 -2 12 -5
10 -2 -3 -37 27 -77 65 -40 39 -93 87 -116 106 -24 19 -49 40 -55 46 -7 5 -20
13 -29 17 -10 3 -18 11 -18 17 0 6 -4 8 -10 5 -5 -3 -10 -1 -10 4 0 6 -5 11
-11 11 -6 0 -29 14 -51 31 -21 17 -41 29 -45 26 -3 -3 -10 -2 -17 4 -32 27
-88 59 -96 54 -5 -3 -11 -1 -15 5 -8 12 -76 44 -89 41 -5 -1 -12 3 -16 9 -4 6
-18 12 -31 14 -13 2 -40 10 -60 18 -20 9 -51 19 -70 23 -19 4 -39 12 -46 17
-7 5 -17 7 -22 4 -5 -4 -12 -2 -15 3 -4 5 -23 10 -44 10 -42 0 -169 19 -192
28 -35 14 -391 24 -413 11z m-337 -401 c91 -14 181 -39 238 -66 34 -17 64 -31
67 -30 3 0 20 -11 36 -25 17 -15 34 -26 38 -26 13 0 171 -155 171 -167 0 -7 8
-17 18 -22 9 -6 13 -11 9 -11 -4 0 5 -19 21 -42 25 -38 41 -68 47 -90 2 -5 3
-9 5 -10 9 -12 40 -158 40 -191 0 -21 4 -36 8 -33 4 3 7 -7 5 -22 -8 -65 -24
-159 -35 -196 -6 -23 -11 -45 -10 -49 1 -4 -5 -15 -13 -23 -8 -9 -13 -20 -10
-25 4 -5 2 -9 -3 -9 -5 0 -13 -8 -16 -17 -15 -43 -41 -76 -105 -140 -82 -82
-83 -82 -196 -137 -92 -44 -176 -67 -252 -68 -24 -1 -43 -4 -43 -9 0 -4 -10
-5 -22 -2 -13 3 -45 7 -71 9 -27 2 -65 8 -85 14 -20 5 -47 10 -59 10 -29 0
-200 77 -227 101 -11 11 -24 19 -29 19 -5 0 -18 9 -28 21 -10 11 -23 18 -28
14 -6 -3 -11 -3 -11 2 0 4 -29 39 -65 77 -35 39 -75 92 -88 118 -13 26 -26 46
-29 43 -3 -3 -13 21 -23 52 -10 32 -23 69 -28 83 -6 14 -11 33 -12 43 -2 9 -4
20 -5 25 -2 4 -4 18 -5 32 -1 14 -5 33 -9 42 -8 18 2 150 14 181 1 4 3 10 5
15 1 4 5 16 9 27 5 11 14 37 22 59 8 21 26 53 39 71 14 17 25 35 25 39 0 19
157 176 176 176 7 0 18 9 24 21 7 11 14 18 17 16 3 -3 33 10 68 29 35 19 71
37 82 39 10 3 47 13 83 23 62 16 163 20 240 9z"/>
<path d="M1937 6228 c-7 -4 -38 -6 -68 -6 -50 1 -92 -5 -129 -19 -8 -4 -19 -5
-23 -4 -10 2 -179 -55 -227 -77 -19 -9 -38 -21 -42 -26 -4 -6 -10 -7 -14 -4
-4 4 -18 -2 -32 -12 -13 -11 -31 -20 -38 -20 -8 0 -14 -5 -14 -10 0 -6 -12
-16 -27 -23 -36 -16 -58 -34 -166 -142 -110 -110 -123 -125 -120 -136 2 -5 -2
-9 -7 -9 -6 0 -10 -6 -10 -13 0 -7 -9 -23 -20 -35 -12 -12 -18 -22 -14 -22 4
0 0 -8 -8 -17 -9 -10 -21 -35 -29 -55 -7 -21 -17 -38 -23 -38 -5 0 -7 -3 -3
-6 3 -3 -2 -27 -12 -53 -10 -25 -24 -81 -31 -123 -7 -43 -16 -78 -19 -78 -10
0 -11 -24 -13 -190 -1 -120 4 -205 12 -205 1 0 3 -8 5 -18 10 -54 29 -125 38
-147 6 -14 11 -27 12 -30 0 -3 13 -31 28 -62 15 -31 27 -62 27 -67 0 -6 5 -11
10 -11 6 0 10 -5 10 -10 0 -6 12 -29 27 -53 14 -23 25 -43 22 -44 -2 0 8 -11
24 -23 15 -12 27 -26 27 -31 0 -5 16 -26 35 -46 19 -20 35 -41 35 -45 0 -4 5
-8 11 -8 13 0 49 -38 49 -52 0 -4 5 -8 10 -8 6 0 24 -13 42 -30 17 -16 35 -30
39 -30 4 0 21 -12 38 -27 17 -16 52 -39 78 -53 26 -13 51 -28 54 -33 3 -5 9
-8 13 -8 3 0 25 -8 48 -19 135 -61 159 -70 182 -70 14 0 28 -5 31 -10 4 -6 11
-8 16 -5 5 4 15 3 22 -2 13 -8 30 -12 68 -17 14 -1 30 -5 35 -8 39 -23 330
-26 422 -4 33 8 63 12 66 9 2 -3 11 -1 18 3 7 5 18 10 23 11 96 24 126 33 160
48 22 10 43 19 47 19 4 1 13 7 19 14 7 6 20 12 30 12 9 0 32 11 52 24 19 13
38 22 41 18 3 -3 6 0 6 6 0 7 7 12 15 12 8 0 15 5 15 10 0 6 5 10 11 10 10 0
23 10 80 63 10 9 19 14 19 11 0 -4 32 26 70 67 39 40 70 77 70 82 0 5 11 18
25 29 14 11 25 24 25 29 0 5 8 22 19 37 36 53 56 87 67 117 50 130 65 175 69
205 3 19 7 46 10 60 19 82 26 177 21 264 -3 54 -9 103 -13 110 -4 6 -6 19 -5
29 2 10 -1 24 -6 30 -5 7 -8 25 -7 40 1 15 -2 30 -7 33 -4 3 -8 12 -8 19 0 8
-12 40 -27 72 -15 32 -27 63 -28 68 -2 37 -131 225 -210 309 -36 37 -65 71
-65 75 0 3 -14 12 -30 19 -17 8 -28 18 -24 23 3 5 -2 9 -10 9 -9 0 -16 4 -16
8 0 5 -16 17 -35 28 -19 10 -35 21 -35 25 0 4 -14 12 -31 19 -17 7 -36 18 -42
24 -18 17 -97 56 -113 56 -8 0 -14 5 -14 12 0 6 -3 8 -7 5 -3 -4 -16 -1 -27 6
-12 7 -41 19 -66 26 -25 7 -58 18 -75 25 -16 6 -34 11 -40 11 -5 1 -21 7 -35
15 -14 7 -27 13 -30 12 -3 -1 -23 4 -45 10 -66 18 -285 30 -308 16z m513 -262
c25 -2 58 -9 73 -15 15 -6 40 -14 55 -17 15 -4 33 -11 40 -17 6 -5 12 -7 12
-3 0 7 86 -40 120 -66 59 -45 127 -120 150 -165 14 -26 27 -50 30 -53 20 -20
29 -165 17 -269 -3 -24 -19 -71 -36 -105 -16 -33 -29 -63 -29 -66 1 -5 -65
-72 -106 -107 -14 -12 -26 -19 -26 -17 0 3 -12 -4 -26 -15 -15 -12 -33 -21
-40 -21 -7 0 -25 -5 -41 -12 -34 -14 -52 -18 -78 -21 -11 -2 -24 -5 -30 -9 -5
-3 -48 -4 -95 -2 -115 4 -130 6 -130 17 0 5 -6 7 -13 4 -7 -3 -21 1 -32 9 -10
8 -27 14 -37 14 -10 0 -18 5 -18 10 0 6 -7 10 -15 10 -8 0 -15 5 -15 11 0 5
-4 8 -9 5 -21 -13 -196 177 -207 224 0 3 -6 18 -13 34 -20 48 -29 147 -20 206
5 30 10 66 11 80 1 14 6 31 11 38 5 6 7 12 3 12 -3 0 8 28 26 63 18 34 31 67
29 72 -1 6 0 7 3 4 3 -3 34 21 68 53 34 32 64 56 66 53 3 -3 15 1 26 8 31 21
129 55 143 50 6 -2 14 0 17 5 2 4 20 7 38 5 18 -2 53 -5 78 -7z"/>
<path d="M4273 5259 c3 -30 8 -70 11 -89 3 -19 6 -61 6 -92 0 -31 4 -59 8 -62
5 -3 7 -33 5 -68 -8 -153 -10 -186 -15 -194 -3 -5 -9 -38 -13 -74 -3 -36 -11
-83 -17 -105 -5 -22 -10 -42 -11 -45 0 -3 -6 -20 -14 -39 -8 -18 -12 -36 -9
-39 3 -3 2 -10 -2 -16 -5 -6 -15 -37 -22 -68 -7 -32 -16 -58 -20 -58 -3 0 -14
-26 -25 -57 -11 -32 -24 -61 -30 -65 -5 -4 -7 -8 -3 -8 5 0 -10 -33 -31 -74
-21 -41 -36 -77 -33 -80 3 -3 -1 -6 -9 -6 -8 0 -22 -20 -32 -45 -11 -25 -23
-45 -29 -45 -5 0 -7 -4 -4 -8 3 -5 -3 -16 -12 -25 -26 -24 -44 -47 -36 -47 3
0 -7 -15 -22 -34 -16 -18 -45 -52 -64 -76 -19 -24 -52 -60 -72 -80 -21 -21
-38 -43 -38 -49 0 -6 -4 -11 -10 -11 -8 0 -46 -33 -156 -136 -19 -18 -34 -30
-34 -27 0 6 -74 -50 -82 -63 -4 -7 -19 -15 -33 -18 -14 -4 -25 -11 -25 -16 0
-6 -7 -10 -15 -10 -7 0 -19 -8 -24 -17 -6 -10 -11 -15 -11 -11 0 4 -28 -9 -62
-30 -35 -21 -84 -47 -110 -58 -27 -10 -48 -22 -48 -26 0 -5 -9 -8 -20 -8 -11
0 -20 -5 -20 -10 0 -6 -3 -9 -7 -8 -11 3 -133 -44 -138 -53 -3 -4 -17 -6 -30
-3 -15 3 -25 0 -25 -7 0 -6 -7 -9 -15 -5 -8 3 -15 1 -15 -3 0 -5 -24 -15 -52
-21 -29 -7 -61 -17 -70 -22 -10 -5 -37 -11 -60 -13 -24 -3 -74 -11 -113 -19
-106 -21 -155 -28 -213 -28 -28 -1 -52 -4 -52 -7 0 -4 -62 -5 -137 -4 -224 5
-273 8 -273 16 0 5 -8 7 -17 6 -20 -3 -159 19 -183 28 -8 3 -32 6 -52 6 -21 1
-38 4 -38 8 0 4 -8 8 -17 8 -27 1 -57 6 -68 13 -6 3 -22 8 -37 12 -15 3 -40
11 -55 17 -15 7 -35 13 -43 15 -49 8 -153 46 -162 59 -4 6 -8 7 -8 3 0 -4 -11
-3 -25 2 -33 12 -40 -1 -24 -48 7 -20 12 -40 11 -44 -1 -5 3 -8 10 -8 6 0 9
-3 5 -6 -3 -4 3 -29 13 -58 11 -28 20 -58 20 -66 0 -13 16 -56 61 -165 13 -33
23 -69 21 -77 -1 -5 1 -8 6 -8 4 0 12 -12 19 -27 6 -16 19 -46 29 -68 9 -22
16 -43 16 -47 -1 -5 3 -8 8 -8 5 0 9 -3 8 -7 -4 -12 115 -243 124 -243 4 0 8
-7 8 -15 0 -8 5 -15 10 -15 6 0 10 -7 10 -15 0 -8 4 -15 9 -15 5 0 7 -10 4
-22 -3 -13 -2 -20 2 -16 4 4 21 -14 38 -40 16 -26 28 -47 26 -48 -2 0 13 -21
33 -46 21 -25 35 -47 33 -50 -3 -2 9 -17 25 -33 17 -16 30 -35 30 -42 0 -7 4
-13 10 -13 5 0 9 -4 7 -9 -1 -5 13 -23 30 -40 18 -17 33 -34 33 -37 0 -6 0 -5
77 -99 134 -161 424 -445 456 -445 6 0 7 -3 4 -7 -4 -3 10 -18 31 -32 20 -14
47 -34 59 -46 22 -21 46 -40 84 -65 12 -8 40 -29 63 -45 23 -17 56 -40 74 -50
17 -11 32 -23 32 -28 0 -4 4 -6 9 -3 5 3 14 -1 21 -9 18 -21 37 -18 51 8 16
30 94 107 108 107 6 0 14 7 17 15 4 8 10 13 14 10 4 -3 13 2 20 10 7 8 16 15
21 15 4 0 20 5 36 11 35 14 65 18 183 20 108 2 177 -10 217 -37 15 -10 31 -17
36 -16 4 1 7 -2 7 -7 0 -5 9 -13 21 -16 11 -4 18 -9 16 -11 -3 -3 9 -20 25
-37 25 -27 90 -146 92 -169 1 -3 4 -10 9 -14 4 -4 7 -17 7 -28 1 -24 51 -67
58 -48 2 7 10 12 18 12 8 0 14 7 14 15 0 8 4 15 10 15 5 0 16 12 24 27 13 26
81 71 98 66 4 -2 8 1 8 6 0 10 132 7 170 -3 14 -4 30 -8 35 -10 6 -1 21 -8 35
-13 14 -6 40 -17 58 -23 17 -7 32 -17 32 -22 0 -5 4 -7 9 -4 5 3 14 -1 21 -9
7 -8 18 -15 24 -15 6 0 28 -16 48 -35 20 -19 41 -35 45 -35 5 0 20 -15 33 -33
13 -17 34 -40 47 -50 13 -10 23 -25 23 -33 0 -8 4 -14 8 -14 10 0 46 -71 65
-126 7 -21 13 -66 12 -99 0 -33 4 -65 10 -71 11 -12 78 -14 89 -4 2 3 6 37 7
75 1 39 8 82 16 98 7 15 10 27 7 27 -4 0 0 8 8 18 9 9 19 28 23 42 16 52 188
220 248 242 15 5 27 14 27 19 0 5 4 8 8 6 4 -1 24 5 43 14 37 18 87 35 134 44
46 10 145 13 145 4 0 -4 11 -6 25 -4 14 1 25 -2 25 -6 0 -5 16 -15 35 -23 19
-8 35 -19 35 -23 0 -13 51 -68 63 -69 21 -1 47 16 47 31 0 8 5 15 10 15 6 0
10 11 10 24 0 14 7 32 16 40 8 9 12 16 8 16 -3 0 -1 7 6 15 7 8 9 15 4 15 -5
0 -4 4 2 8 5 4 20 23 32 42 29 47 69 90 82 90 5 0 10 5 10 11 0 5 4 8 9 5 5
-3 15 1 22 10 17 21 79 47 106 45 13 -1 28 1 34 5 16 10 169 11 175 2 3 -5 16
-8 30 -8 25 0 116 -35 143 -55 18 -13 142 -137 159 -158 6 -9 12 -21 12 -27 0
-5 4 -10 8 -10 9 0 37 -70 34 -82 -1 -5 3 -8 8 -8 6 0 10 -9 10 -19 0 -11 6
-26 13 -33 7 -7 12 -20 12 -28 -2 -21 14 -50 27 -50 14 0 202 93 206 103 2 4
10 7 18 7 8 0 14 3 14 8 0 4 20 16 45 27 25 11 45 23 45 27 0 4 20 17 44 28
24 11 46 23 48 27 3 9 108 79 120 81 10 2 55 40 84 69 12 13 25 23 29 23 4 0
36 25 71 56 35 31 64 53 64 50 0 -3 22 16 49 42 144 138 231 224 231 229 0 4
20 27 45 52 88 89 345 425 345 452 0 5 4 9 8 9 5 0 18 17 29 37 18 33 86 149
113 193 5 8 20 36 32 63 13 26 27 47 31 47 5 0 6 4 3 9 -3 5 1 14 9 21 8 7 15
17 15 22 0 15 32 82 43 89 5 3 8 8 7 10 -1 2 3 17 9 32 6 16 11 34 11 40 0 7
9 27 20 45 11 17 16 32 12 32 -4 0 -2 4 3 8 14 9 82 208 101 291 8 36 19 70
24 76 5 7 7 15 4 18 -3 3 -2 12 2 19 10 16 15 34 19 73 1 17 5 37 8 45 5 15
26 117 32 155 1 11 4 22 5 25 1 3 3 19 5 35 1 17 4 32 5 35 10 18 27 460 17
460 -11 0 -66 -32 -77 -45 -7 -8 -16 -12 -21 -10 -4 3 -17 -2 -29 -12 -30 -26
-242 -133 -252 -127 -4 3 -8 0 -8 -5 0 -6 -3 -10 -7 -9 -5 1 -22 -6 -40 -15
-18 -9 -39 -17 -48 -17 -8 0 -15 -5 -15 -11 0 -6 -6 -9 -14 -6 -7 3 -19 0 -25
-6 -6 -6 -11 -7 -11 -3 0 5 -6 4 -12 -2 -19 -15 -138 -54 -170 -56 -16 0 -28
-3 -28 -7 0 -3 -6 -6 -12 -7 -7 0 -38 -8 -68 -17 -101 -29 -125 -35 -180 -40
-25 -3 -61 -7 -80 -11 -19 -3 -91 -10 -160 -16 -69 -5 -132 -12 -140 -15 -24
-8 -260 -9 -260 0 0 4 -26 7 -57 8 -55 0 -137 8 -248 24 -27 4 -66 8 -85 9
-19 2 -43 6 -52 10 -10 5 -25 6 -33 3 -8 -4 -17 -2 -20 3 -3 4 -24 11 -48 15
-23 4 -48 12 -54 17 -7 6 -13 8 -13 5 0 -3 -15 -1 -32 5 -18 5 -42 11 -53 12
-11 1 -26 5 -32 9 -7 5 -17 5 -23 2 -5 -3 -10 -2 -10 3 0 6 -22 16 -50 23 -27
7 -50 17 -50 21 0 5 -4 6 -10 3 -5 -3 -10 -1 -10 4 0 6 -3 10 -7 9 -12 -4 -94
24 -131 44 -18 10 -37 16 -43 13 -5 -4 -9 -1 -9 6 0 7 -3 10 -6 6 -3 -3 -23 4
-43 17 -35 22 -55 31 -76 35 -5 2 -17 8 -25 15 -8 6 -27 18 -42 26 -16 7 -28
17 -28 21 0 5 -7 6 -15 3 -8 -4 -15 -1 -15 7 0 7 -3 10 -6 6 -3 -3 -11 -2 -18
4 -26 21 -88 59 -98 59 -5 0 -19 11 -30 26 -11 14 -23 23 -26 19 -3 -3 -16 5
-29 17 -13 12 -23 18 -23 13 0 -4 -14 6 -30 24 -17 17 -34 31 -39 31 -5 0 -26
15 -46 33 -20 17 -38 31 -40 30 -4 -2 -54 44 -196 183 -93 90 -155 157 -214
232 -11 14 -35 43 -53 66 -17 23 -37 47 -42 54 -6 6 -8 12 -4 12 4 0 -1 9 -12
19 -10 10 -32 42 -49 70 -16 28 -33 51 -37 51 -5 0 -8 9 -8 20 0 11 -3 20 -8
20 -9 0 -93 151 -92 164 1 5 -2 12 -7 15 -12 8 -58 104 -55 114 1 4 -2 7 -6 7
-5 0 -14 19 -21 43 -7 23 -19 54 -27 69 -8 14 -14 31 -14 38 0 6 -7 19 -16 28
-15 14 -16 11 -11 -39z m187 -1398 c36 -6 88 -11 117 -11 28 0 54 -4 57 -8 3
-5 21 -8 41 -7 19 2 35 0 35 -4 0 -4 12 -8 28 -8 15 -1 38 -4 52 -7 147 -32
177 -41 193 -56 16 -14 18 -34 18 -136 0 -65 -5 -153 -11 -194 -11 -81 -18
-125 -25 -180 -2 -19 -7 -48 -10 -65 -3 -16 -7 -52 -10 -80 -3 -27 -10 -74
-16 -102 -5 -29 -12 -65 -14 -80 -2 -16 -4 -29 -6 -30 -1 -2 -3 -12 -4 -23 -1
-11 -4 -21 -5 -22 -1 -2 -4 -16 -5 -33 -2 -16 -4 -30 -5 -30 -4 0 -9 -31 -19
-110 -5 -38 -15 -90 -21 -115 -6 -25 -13 -56 -15 -70 -14 -76 -18 -90 -26 -90
-5 0 -12 7 -15 15 -4 8 -12 15 -20 15 -8 0 -13 6 -11 13 1 6 -4 11 -10 10 -7
-2 -13 3 -13 10 0 7 -19 31 -42 53 -72 68 -433 445 -437 456 -2 5 -28 33 -57
62 -30 29 -54 58 -54 64 0 7 -3 11 -7 10 -5 -2 -10 2 -13 7 -2 6 -18 24 -35
42 -69 73 -99 108 -96 111 2 2 -8 16 -21 30 -33 37 -80 102 -74 102 4 0 -3 9
-14 20 -11 11 -20 28 -20 38 0 27 75 99 265 256 44 37 96 81 115 100 19 18 43
36 53 39 9 4 17 10 17 14 0 10 53 7 140 -6z"/>
<path d="M3144 911 c-18 -4 -47 -18 -66 -29 -46 -29 -141 -130 -133 -142 3 -6
3 -10 -2 -10 -9 0 -56 -116 -56 -137 0 -7 -3 -13 -6 -13 -4 0 -6 -67 -6 -150
l0 -150 31 -32 c17 -18 42 -38 55 -44 56 -27 85 -37 93 -35 4 1 14 -4 22 -10
8 -7 17 -9 20 -7 3 3 26 -1 51 -8 25 -8 75 -14 110 -14 34 0 63 -3 63 -8 0 -4
33 -8 73 -9 155 -5 563 -5 577 0 8 2 30 8 48 12 17 4 32 11 32 16 0 5 7 9 15
9 9 0 18 7 21 15 3 8 14 17 25 20 10 4 22 17 25 31 3 13 10 24 15 24 5 0 9 9
9 19 0 11 4 22 8 25 9 5 8 123 -2 163 -2 12 -14 44 -26 70 -12 26 -21 49 -21
50 0 4 -86 88 -112 110 -14 12 -50 32 -79 45 -29 12 -54 25 -56 30 -2 4 -10 4
-18 1 -8 -3 -20 -1 -27 4 -18 15 -117 9 -159 -9 -20 -9 -49 -30 -64 -47 -29
-33 -54 -41 -54 -17 0 7 -6 19 -14 25 -8 7 -13 20 -11 29 1 9 -1 19 -6 22 -4
3 -9 12 -11 19 -2 8 -10 22 -18 31 -8 9 -22 26 -30 38 -8 12 -20 22 -27 22 -6
0 -17 8 -22 18 -6 9 -11 13 -11 8 0 -5 -7 -3 -15 4 -19 15 -194 23 -241 11z"/>
<path d="M5754 829 c-3 -5 -9 -7 -14 -4 -5 3 -11 1 -15 -5 -4 -6 -11 -8 -16
-5 -5 4 -9 1 -9 -4 0 -6 -7 -11 -15 -11 -9 0 -18 -7 -21 -15 -4 -8 -9 -13 -14
-10 -4 2 -18 -7 -30 -20 -13 -14 -20 -25 -17 -25 4 0 -1 -8 -12 -19 -10 -10
-31 -44 -46 -75 -15 -31 -32 -56 -37 -56 -6 0 -24 15 -42 34 -54 58 -124 69
-257 41 -40 -9 -77 -21 -81 -28 -4 -7 -8 -7 -8 -2 0 7 -3 7 -8 0 -4 -6 -24
-19 -45 -30 -21 -11 -48 -29 -61 -40 -13 -11 -34 -27 -45 -35 -12 -8 -21 -20
-21 -26 0 -7 -11 -21 -25 -32 -14 -11 -24 -24 -23 -29 1 -4 -3 -17 -9 -28 -16
-30 -24 -144 -14 -190 13 -52 94 -130 154 -146 23 -6 83 -11 132 -11 52 0 96
-5 104 -12 11 -8 13 -8 8 0 -5 9 8 11 46 10 30 -2 58 -6 64 -9 6 -4 13 -3 17
1 4 4 89 8 189 10 100 1 209 7 242 13 33 6 72 10 88 10 15 -1 27 3 27 8 0 6 9
8 20 6 11 -2 20 0 20 5 0 5 7 7 15 4 8 -3 20 -2 27 2 7 5 15 9 18 10 47 9 100
29 100 37 0 6 3 8 6 4 4 -3 21 5 40 19 49 38 67 103 67 240 0 93 -4 118 -23
160 -13 27 -22 52 -22 57 1 4 -3 7 -9 7 -5 0 -7 5 -4 10 3 6 1 10 -4 10 -6 0
-11 5 -11 10 0 6 -13 24 -30 40 -16 16 -30 34 -30 40 0 6 -4 8 -10 5 -5 -3
-10 -3 -10 2 0 11 -87 55 -140 70 -30 9 -200 10 -206 2z"/>
</g>
</svg>
